<?xml version="1.0" encoding="utf-8"?><svg viewBox="0 0 1920 781" xmlns="http://www.w3.org/2000/svg" xmlns:xlink="http://www.w3.org/1999/xlink"><style>:root>svg{display:none}:root>svg:target{display:block}</style><svg fill="none" viewBox="0 0 1024 564" id="about-backg-1024" xmlns="http://www.w3.org/2000/svg"><path d="M0 35C0 15.67 15.67 0 35 0h202.253c16.154 0 29.25 13.096 29.25 29.25s13.095 29.25 29.25 29.25H989c19.33 0 35 15.67 35 35V529c0 19.33-15.67 35-35 35H35c-19.33 0-35-15.67-35-35V35Z" fill="#E8E8E8"/></svg><svg fill="none" viewBox="0 0 1170 564" id="about-backgraund" xmlns="http://www.w3.org/2000/svg"><path d="M0 35C0 15.67 15.67 0 35 0h240.25c16.154 0 29.25 13.096 29.25 29.25s13.096 29.25 29.25 29.25H1135c19.33 0 35 15.67 35 35V529c0 19.33-15.67 35-35 35H35c-19.33 0-35-15.67-35-35V35Z" fill="#E8E8E8"/></svg><svg viewBox="0 0 63 63" id="about-svg-1" xmlns="http://www.w3.org/2000/svg"><path d="m61.918 43.99-7.075-7.074C62.958 19.887 50.485 0 31.5 0 12.55 0 .026 19.853 8.158 36.916L1.083 43.99C-.887 45.96-.05 49.32 2.62 50.133l7.858 2.387 2.387 7.86c.81 2.658 4.164 3.513 6.143 1.537L29.337 51.59c1.42.118 2.858.122 4.326 0l10.329 10.328c1.972 1.972 5.33 1.127 6.142-1.538l2.387-7.859 7.859-2.387c2.674-.814 3.503-4.176 1.538-6.142ZM16.399 59.307l-2.388-7.858a3.684 3.684 0 0 0-2.458-2.46L3.692 46.6l6.362-6.362c3.455 5.129 8.7 8.957 14.83 10.581L16.4 59.306Zm-3.677-21.734C3.45 22.804 14.239 3.692 31.5 3.692c17.402 0 27.968 19.244 18.778 33.88-8.702 13.877-28.855 13.875-37.556 0Zm38.726 11.416a3.687 3.687 0 0 0-2.46 2.46l-2.386 7.858-8.487-8.486c6.131-1.624 11.375-5.452 14.83-10.58l6.362 6.36-7.859 2.388Z"/><path d="M31.5 7.383c-12.351 0-21.28 11.99-17.654 23.845 3.09 10.125 14.05 15.505 23.856 11.996 7.14-2.555 12.255-9.387 12.255-17.384 0-10.178-8.28-18.457-18.457-18.457Zm-9.954 29.35c-9.966-9.096-3.41-25.659 9.954-25.659 9.095 0 16.019 8.184 14.582 17.081-1.808 11.532-15.844 16.532-24.536 8.579Z"/><path d="m37.1 20.848-8.136 6.039-2.818-3.003a1.845 1.845 0 1 0-2.691 2.526l3.943 4.202a1.846 1.846 0 0 0 2.446.219l9.456-7.019a1.846 1.846 0 0 0-2.2-2.964Z"/></svg><svg viewBox="0 0 65 63" id="about-svg-2" xmlns="http://www.w3.org/2000/svg"><path d="M61.483 25.605c-5.379-3.598.385-8.912-2.624-13.368-2.06-3.053-7.208-2.017-9.92-3.532-2.204-2.116-2.854-7.386-6.37-8.41-3.406-1.282-6.955 2.65-10.019 2.963-3.064-.301-6.613-4.256-10.052-3.02-3.516 1.026-4.133 6.284-6.37 8.412-2.679 1.526-7.826.479-9.92 3.531-2.204 2.908.353 7.542-.276 10.584C4.61 25.56-.13 27.778.002 31.498c-.12 3.721 4.597 5.938 5.93 8.735.629 3.04-1.95 7.675.276 10.583 2.061 3.052 7.208 2.016 9.92 3.531 4 5.348 4.045 11.887 12.785 6.84 2.866-1.815 4.409-1.804 7.274 0 5.07 3.231 8.598 1.939 10.802-3.642 1.797-6.395 8.443-2.373 11.87-6.685 2.205-2.907-.352-7.542.276-10.583a9.002 9.002 0 0 1 2.348-2.84c4.673-3.956 4.706-7.91 0-11.832Zm-2.27 9.358c-8.763 6.785 2.975 14.55-7.01 15.129-8.433.58-6.36 5.67-10.626 9.491-2.579.2-6.117-3.42-9.027-3.186-2.91-.234-6.459 3.342-9.027 3.186-2.27-1.303-2.987-6.394-5.456-7.932-2.204-1.905-7.219-1.047-9.148-2.796-1.102-5.57 3.307-8.589-3.03-13.892-7.914-6.584 6.315-5.87 3.097-16.655-.287-1.604-.607-3.409-.067-4.166 4.927-2.863 9.071.601 12.124-7.252.827-1.627 1.477-3.454 2.789-3.532 5.621 1.593 7.616 5.492 13.932 1.404 1.388-.758 2.964-1.616 3.813-1.337 2.27 1.303 2.987 6.394 5.511 7.932 2.204 1.905 7.22 1.047 9.148 2.796.54.758.22 2.562-.066 4.167-3.273 10.783 10.956 10.06 3.042 16.643Z"/><path d="M45.7 23.3h-2.613a12.063 12.063 0 0 0 1.587-5.816c.254-4.178-5.775-6.395-7.825-2.45a25.095 25.095 0 0 1-8.707 9.435 1.67 1.67 0 0 0-.595-.842 1.641 1.641 0 0 0-.97-.328h-8.355c-.439 0-.86.176-1.17.49a1.68 1.68 0 0 0-.483 1.181V43.91c0 .443.174.868.484 1.181.31.314.73.49 1.169.49h4.74a5.126 5.126 0 0 0 2.864-.738 5.204 5.204 0 0 0 1.996-2.203 61.955 61.955 0 0 0 15.43 1.96 5.025 5.025 0 0 0 3.19-1.12 5.121 5.121 0 0 0 1.781-2.901l2.414-10.962a5.245 5.245 0 0 0-.984-4.344 5.148 5.148 0 0 0-1.757-1.437 5.09 5.09 0 0 0-2.197-.536ZM22.96 42.237H19.82V26.64h5.125v13.892a1.798 1.798 0 0 1-.62 1.295 1.756 1.756 0 0 1-1.364.41Zm24.48-13.369-2.414 10.962c-.088.4-.309.758-.626 1.013-.317.255-.71.393-1.116.391a58.627 58.627 0 0 1-15.033-1.938V28.3a28.417 28.417 0 0 0 11.451-11.675c.265-.746 1.709-.067 1.62.747-.066 2.116-.76 4.723-2.534 5.726-.366.163-.67.44-.868.792-.198.35-.28.756-.235 1.157.018.43.2.838.508 1.135.309.297.72.462 1.146.458h6.392a1.792 1.792 0 0 1 1.359.697 1.836 1.836 0 0 1 .35 1.498v.033Z"/></svg><svg viewBox="0 0 70 54" id="about-svg-3" xmlns="http://www.w3.org/2000/svg"><path d="m62.691 30.315-4.563-1.09v-1.603a8.553 8.553 0 0 0 4.216-7.366v-6.05c0-4.715-3.836-8.55-8.55-8.55h-.946a8.53 8.53 0 0 0-6.35 2.83C44.981 3.577 40.401 0 35 0c-5.4 0-9.981 3.577-11.498 8.486a8.53 8.53 0 0 0-6.35-2.83h-.945c-4.715 0-8.55 3.835-8.55 8.55v6.05a8.553 8.553 0 0 0 4.215 7.366v1.603l-4.563 1.09A9.49 9.49 0 0 0 0 39.575v4.116c0 .755.612 1.367 1.367 1.367H12.41c-.07.545-.105 1.094-.105 1.644v4.372H4.102a1.367 1.367 0 0 0 0 2.734h61.797a1.367 1.367 0 0 0 0-2.734h-8.204v-4.366c0-.558-.035-1.109-.105-1.65h11.043c.755 0 1.367-.612 1.367-1.367v-4.115a9.49 9.49 0 0 0-7.309-9.261Zm-15.66-16.109a5.823 5.823 0 0 1 5.817-5.816h.945a5.823 5.823 0 0 1 5.817 5.816v.35a10.323 10.323 0 0 1-5.54-1.687 1.367 1.367 0 0 0-1.498 0 10.321 10.321 0 0 1-5.54 1.688v-.351Zm0 4.935v-1.85a13.045 13.045 0 0 0 6.29-1.68 13.044 13.044 0 0 0 6.288 1.68v2.965a5.823 5.823 0 0 1-5.816 5.816h-.946a5.823 5.823 0 0 1-5.816-5.816V19.14Zm2.623 15.736a12.897 12.897 0 0 0-1.727-.545l-4.345-1.038c.324-.133.658-.241.998-.323l4.319-1.035.755 2.941Zm-1.132-7.25v1.588l-4.58 1.097a9.498 9.498 0 0 0-2.783 1.158v-1.998a12.121 12.121 0 0 0 4.453-4.668 8.612 8.612 0 0 0 2.91 2.823Zm-4.225-8.486c0 5.126-4.17 9.297-9.297 9.297-5.126 0-9.297-4.171-9.297-9.297v-4.005h1.503c3.838 0 7.495-1.225 10.502-3.45l.313.469a6.7 6.7 0 0 0 5.58 2.98h.696v4.006Zm-18.594-7.11c0-5.126 4.17-9.297 9.297-9.297 5.126 0 9.297 4.171 9.297 9.297v.37H43.6a3.972 3.972 0 0 1-3.307-1.766l-.505-.756c.413-.418.805-.857 1.174-1.313a1.367 1.367 0 1 0-2.126-1.719 14.888 14.888 0 0 1-11.63 5.554h-1.503v-.37Zm-1.315 12.773a12.12 12.12 0 0 0 4.465 4.675v1.999a9.501 9.501 0 0 0-2.796-1.166l-4.579-1.097v-1.588a8.616 8.616 0 0 0 2.91-2.823Zm2.015 8.484-4.34 1.04c-.583.14-1.156.322-1.715.542l.753-2.934 4.319 1.035c.337.08.665.187.983.317ZM10.39 14.206a5.823 5.823 0 0 1 5.816-5.816h.946a5.823 5.823 0 0 1 5.816 5.816v.35a10.323 10.323 0 0 1-5.54-1.687 1.367 1.367 0 0 0-1.498 0 10.321 10.321 0 0 1-5.54 1.688v-.351Zm0 6.05V17.29a13.045 13.045 0 0 0 6.289-1.68 13.043 13.043 0 0 0 6.289 1.68v2.965a5.823 5.823 0 0 1-5.817 5.816h-.945a5.823 5.823 0 0 1-5.816-5.816Zm2.685 22.068H2.734v-2.748a6.764 6.764 0 0 1 5.21-6.601l4.305-1.029 2.034 7.928c-.49.77-.894 1.592-1.207 2.45Zm1.53-13.67a8.544 8.544 0 0 0 1.6.152h.947c.544 0 1.075-.053 1.591-.15v1.464l-1.713 6.677c-.2.16-.396.327-.586.5l-1.838-7.166v-1.477Zm.433 22.42v-4.372a9.958 9.958 0 0 1 4.175-8.13l12.503 12.502H15.038Zm6.73-13.814c.306-.106.617-.197.932-.273l6.53-1.565L32.44 47.93 21.77 37.26Zm9.819-3.653v-2.928c1.107.328 2.257.494 3.412.493 1.19 0 2.339-.174 3.425-.497v2.947L35.009 46.94l-3.421-13.333Zm9.194 1.83 6.51 1.555c.324.078.645.172.96.282l-10.68 10.68 3.21-12.517Zm14.179 15.637H38.318L50.802 38.59a9.956 9.956 0 0 1 4.159 8.118v4.366Zm.433-20.943-1.84 7.17c-.189-.17-.383-.336-.583-.496l-1.715-6.685v-1.464c.525.1 1.058.15 1.592.15h.945c.547 0 1.082-.053 1.6-.152v1.477Zm11.872 12.193H56.922a12.659 12.659 0 0 0-1.206-2.446l2.035-7.932 4.305 1.028a6.765 6.765 0 0 1 5.21 6.601v2.75Z"/></svg><svg viewBox="0 0 59 59" id="about-svg-4" xmlns="http://www.w3.org/2000/svg"><path fill-rule="evenodd" clip-rule="evenodd" d="M.5.5h58v58H.5V.5Zm3 3v4.988h14.876V3.5H3.5Zm17.876 0v4.988H55.5V3.5H21.376ZM55.5 11.488h-52V55.5h52V11.487ZM7.346 15.334h44.308v25.018H7.346V15.334Zm3 3v16.499l2.253-2.598a17.083 17.083 0 0 1 12.906-5.892h8.327a14.082 14.082 0 0 0 10.97-5.253l2.219-2.756H10.346Zm38.308 2.756-1.514 1.881a17.083 17.083 0 0 1-13.308 6.372h-8.327a14.08 14.08 0 0 0-10.64 4.857l-2.733 3.152h36.522V21.09Zm-4.458 28.34v2.753h-3V49.43H7.262v-3h33.934v-2.752h3v2.752h7.811v3h-7.811Z"/></svg><svg fill="none" viewBox="0 0 60 60" id="about-svg-button" xmlns="http://www.w3.org/2000/svg"><circle cx="30" cy="30" r="27" fill="#E8E8E8" stroke="#fff" stroke-width="6"/><path d="m23 28 7 7 7-7" stroke="#fff" stroke-width="4" stroke-linecap="round" stroke-linejoin="round"/></svg><svg viewBox="0 0 1170 750" id="application-background" xmlns="http://www.w3.org/2000/svg"><path d="M0 35C0 15.67 15.67 0 35 0h305.75C356.904 0 370 13.096 370 29.25s13.096 29.25 29.25 29.25H1135c19.33 0 35 15.67 35 35V715c0 19.33-15.67 35-35 35H35c-19.33 0-35-15.67-35-35V35Z"/></svg><svg viewBox="0 0 50 50" id="call" xmlns="http://www.w3.org/2000/svg"><g fill-rule="evenodd" clip-rule="evenodd"><path d="M34.294 16.547c2.086 1.863 3.242 5.981 2.46 12.505-.683 5.755-4.593 6.775-5.906 7.117a5.49 5.49 0 0 0-.306.085c-.355.117-3.475.918-7.537.568l-.404.48c-2.068 2.454-2.424 2.877-3.16 2.64-.683-.213-.643-1.273-.643-1.273l.006-2.619h-.006c-5.935-1.714-5.852-8.034-5.782-11.408.07-3.372.706-6.097 2.515-7.953 4.028-3.795 15.397-3.324 18.764-.143l-.001.001Zm-9.465 2.118c-.42 0-.42.65 0 .655 3.258.025 5.942 2.278 5.971 6.412 0 .436.644.43.638-.005-.034-4.454-2.966-7.037-6.61-7.062Zm4.286 6.382c-.01.43.633.451.638.015.053-2.456-1.473-4.479-4.34-4.692-.42-.03-.464.624-.046.655 2.488.187 3.798 1.871 3.748 4.022Zm-.688 2.793c-.538-.31-1.087-.116-1.314.188l-.475.609c-.24.31-.691.268-.691.268-3.288-.862-4.168-4.276-4.168-4.276s-.04-.462.261-.71l.594-.487c.296-.234.484-.797.182-1.35-.609-1.091-1.067-1.643-1.374-2.013-.1-.12-.184-.222-.252-.316-.29-.36-.726-.442-1.18-.198H20c-.944.547-1.977 1.573-1.646 2.628.098.193.21.459.345.78.646 1.536 1.828 4.344 4.559 6.56 1.552 1.267 4.009 2.566 5.052 2.866l.01.015c1.027.34 2.026-.726 2.56-1.69v-.008c.237-.466.158-.908-.188-1.197-.613-.593-1.538-1.248-2.265-1.669Zm-.954-3.334c-.055-1.116-.563-1.66-1.611-1.72-.425-.025-.385-.68.035-.655 1.379.076 2.144.887 2.214 2.344.02.436-.618.467-.638.03Z"/><path d="M50 25c0 13.807-11.193 25-25 25S0 38.807 0 25 11.193 0 25 0s25 11.193 25 25Zm-2 0c0 12.703-10.297 23-23 23S2 37.703 2 25 12.297 2 25 2s23 10.297 23 23Z"/></g></svg><svg fill="none" viewBox="0 0 24 18" id="checkbox" xmlns="http://www.w3.org/2000/svg"><path d="m3 9 6 6L21 3" stroke="#0046A2" stroke-width="5" stroke-linecap="round" stroke-linejoin="round"/></svg><svg fill="none" viewBox="0 0 30 30" id="contacts-svg-1" xmlns="http://www.w3.org/2000/svg"><circle cx="15" cy="15" r="15" fill="#73A56C"/><path d="M15 16.521c1.45 0 2.625-1.163 2.625-2.597S16.45 11.328 15 11.328s-2.625 1.162-2.625 2.596c0 1.434 1.175 2.597 2.625 2.597Z" stroke="#fff" stroke-width="2" stroke-linecap="round" stroke-linejoin="round"/><path d="m19.95 18.82-3.713 3.674a1.76 1.76 0 0 1-2.473 0L10.05 18.82a6.902 6.902 0 0 1-1.916-3.546 6.855 6.855 0 0 1 .399-4 6.941 6.941 0 0 1 2.578-3.108A7.055 7.055 0 0 1 15 7c1.384 0 2.738.406 3.889 1.167a6.941 6.941 0 0 1 2.578 3.108 6.855 6.855 0 0 1 .399 4 6.901 6.901 0 0 1-1.916 3.546Z" stroke="#fff" stroke-width="2" stroke-linecap="round" stroke-linejoin="round"/></svg><svg fill="none" viewBox="0 0 30 30" id="contacts-svg-2" xmlns="http://www.w3.org/2000/svg"><circle cx="15" cy="15" r="15" fill="#73A56C"/><path d="M15 13v3h2.064M9.84 7 7 9m13.161-2L23 9m-.774 7c0 3.866-3.235 7-7.226 7-3.99 0-7.226-3.134-7.226-7S11.01 9 15 9c3.99 0 7.226 3.134 7.226 7Z" stroke="#fff" stroke-width="2" stroke-linecap="round" stroke-linejoin="round"/></svg><svg fill="none" viewBox="0 0 30 30" id="contacts-svg-3" xmlns="http://www.w3.org/2000/svg"><circle cx="15" cy="15" r="15" fill="#73A56C"/><path d="M17.667 10.556a1.778 1.778 0 0 1 1.777 1.777M17.667 7A5.333 5.333 0 0 1 23 12.333M8.778 7.89h3.555l1.778 4.444-2.222 1.334a9.778 9.778 0 0 0 4.444 4.444l1.334-2.222 4.444 1.778v3.555A1.778 1.778 0 0 1 20.333 23 14.222 14.222 0 0 1 7 9.667a1.778 1.778 0 0 1 1.778-1.778Z" stroke="#fff" stroke-width="2" stroke-linecap="round" stroke-linejoin="round"/></svg><svg fill="none" viewBox="0 0 30 30" id="header-svg" xmlns="http://www.w3.org/2000/svg"><circle cx="15" cy="15" r="15" fill="#73A56C"/><path d="M17.667 10.556a1.778 1.778 0 0 1 1.777 1.777M17.667 7A5.333 5.333 0 0 1 23 12.333M8.778 7.89h3.555l1.778 4.444-2.222 1.334a9.778 9.778 0 0 0 4.444 4.444l1.334-2.222 4.444 1.778v3.555A1.778 1.778 0 0 1 20.333 23 14.222 14.222 0 0 1 7 9.667a1.778 1.778 0 0 1 1.778-1.778Z" stroke="#fff" stroke-width="2" stroke-linecap="round" stroke-linejoin="round"/></svg><svg fill="none" viewBox="0 0 1919 100" id="hero-backg" xmlns="http://www.w3.org/2000/svg"><path d="M0 0h986.5s80.75 100 233.12 100C1372 100 1452.75 0 1452.75 0H1919v100H0V0Z" fill="#fff"/></svg><svg viewBox="0 0 100 37" id="logo" xmlns="http://www.w3.org/2000/svg"><path fill-rule="evenodd" clip-rule="evenodd" d="M0 19.189c0-.613.497-1.11 1.11-1.11h18.484c.613 0 1.11.497 1.11 1.11v2.55a1.11 1.11 0 0 1-1.11 1.11h-4.998a1.71 1.71 0 0 0-.38.042v-.005H9.722l3.18 1.504c-.012.127-.01.257.008.388l1.007 7.4a3.605 3.605 0 1 1-7.144-.005l1.015-7.392a1.7 1.7 0 0 0-1.685-1.932H1.11A1.11 1.11 0 0 1 0 21.739v-2.55Zm10.352 14.935a1.516 1.516 0 1 0 0-3.03 1.516 1.516 0 0 0 0 3.03Z" fill="#272727"/><path d="M0 7.482c0-.62.31-1.199.828-1.541L9.33.308a1.849 1.849 0 0 1 2.042 0l2.047 1.356v1.83l.74 1.923V1.406c0-.51.413-.925.924-.925h2.218c.51 0 .924.414.924.925v3.442l1.65 1.093c.517.342.827.92.827 1.54v6.532a1.849 1.849 0 0 1-1.848 1.848H1.849A1.849 1.849 0 0 1 0 14.013V7.482Z"/><g fill="#272727"><path d="M32.999 2.368c-4.361 0-6.02 1.532-6.02 5.616v3.66c0 4.084 1.659 5.615 6.02 5.615h9.615c.362 0 .553-.191.553-.553v-2.489c0-.361-.191-.553-.553-.553h-9.466c-1.851 0-2.298-.49-2.298-2.404V8.367c0-1.914.447-2.404 2.298-2.404h9.466c.362 0 .553-.191.553-.553V2.921c0-.361-.191-.553-.553-.553H33ZM45.921 2.368c-.361 0-.553.192-.553.553v11.786c0 2.02.723 2.552 2.191 2.552h2.17c1.766 0 2.212-.255 2.85-1.468l4.979-9.594c.042-.106.148-.149.255-.149h.17c.106 0 .149.064.149.213v10.445c0 .383.191.553.553.553h2.766c.361 0 .553-.17.553-.553V4.921c0-2-.702-2.553-2.17-2.553H57.6c-1.766 0-2.212.255-2.83 1.468l-4.956 9.594c-.042.107-.127.15-.255.15h-.17c-.107 0-.15-.065-.15-.214V2.921c0-.361-.19-.553-.552-.553H45.92ZM64.368 2.368c-.383 0-.553.192-.553.553v2.49c0 .36.17.552.553.552h6.382v10.743c0 .362.192.553.575.553h2.744c.361 0 .553-.191.553-.553V5.963h6.403c.362 0 .553-.191.553-.553V2.921c0-.361-.191-.553-.553-.553H64.368ZM83.918 2.368c-.362 0-.553.192-.553.553v11.786c0 2.02.723 2.552 2.19 2.552h2.17c1.766 0 2.213-.255 2.851-1.468l4.978-9.594c.043-.106.15-.149.256-.149h.17c.106 0 .149.064.149.213v10.445c0 .383.191.553.553.553h2.765c.362 0 .553-.17.553-.553V4.921c0-2-.702-2.553-2.17-2.553h-2.233c-1.766 0-2.213.255-2.83 1.468l-4.956 9.594c-.043.107-.128.15-.255.15h-.17c-.107 0-.15-.065-.15-.214V2.921c0-.361-.191-.553-.553-.553h-2.765ZM29.255 19.895c-1.532 0-2.128.596-2.128 1.936v12.402c0 .362.192.553.553.553h2.766c.383 0 .574-.191.574-.553V23.852c0-.255.107-.362.362-.362h8.148c.255 0 .361.107.361.362v10.381c0 .362.192.553.575.553h2.765c.362 0 .553-.191.553-.553V21.831c0-1.34-.595-1.936-2.127-1.936H29.255ZM47.149 19.895c-.426 0-.638.213-.638.638v13.7c0 .362.191.553.553.553h2.765c.362 0 .553-.191.553-.553v-3.808h8.276c3.34 0 4.658-1.531 4.658-4.403v-1.723c0-2.872-1.319-4.404-4.658-4.404h-11.51Zm3.233 3.723c0-.17.085-.255.256-.255h7.254c1.17 0 1.553.468 1.553 1.468v.787c0 1.02-.383 1.489-1.553 1.489h-7.51v-3.49ZM71.162 19.895c-4.361 0-6.02 1.532-6.02 5.616v3.66c0 4.084 1.659 5.615 6.02 5.615h6.637c4.361 0 6.02-1.531 6.02-5.616v-3.659c0-4.084-1.659-5.616-6.02-5.616h-6.637Zm-2.149 5.914c0-1.936.447-2.404 2.298-2.404h6.34c1.85 0 2.297.468 2.297 2.404v3.063c0 1.936-.447 2.426-2.298 2.426h-6.34c-1.85 0-2.297-.49-2.297-2.426V25.81Z"/></g></svg><svg fill="none" viewBox="0 0 100 28" id="maxocom" xmlns="http://www.w3.org/2000/svg"><g fill="#272727"><path fill-rule="evenodd" clip-rule="evenodd" d="M13.017.257a1.921 1.921 0 0 0-1.921 0L.96 6.11C.366 6.452 0 7.086 0 7.773v11.703c0 .686.366 1.32.96 1.664l10.136 5.851a1.921 1.921 0 0 0 1.921 0l10.135-5.851c.595-.343.96-.978.96-1.664V7.773c0-.687-.365-1.32-.96-1.664L13.017.257ZM3.615 8.883l-.088 8.939a.307.307 0 0 0 .146.265l3.015 1.85a.307.307 0 0 0 .469-.262v-3.788c0-.29.364-.42.546-.194l3.452 4.269a.307.307 0 0 0 .546-.193V13.78c0-.104-.052-.2-.139-.257l-7.47-4.895a.307.307 0 0 0-.477.254Zm16.883 0 .088 8.939a.307.307 0 0 1-.146.265l-3.015 1.85a.307.307 0 0 1-.469-.262v-3.788a.307.307 0 0 0-.546-.194l-3.451 4.269a.307.307 0 0 1-.547-.193V13.78c0-.104.052-.2.139-.257l7.47-4.895a.307.307 0 0 1 .477.254Z"/><path d="M31.896 18.238h-2.01v-8.89h2.022l2.714 3.747 2.564-3.747h1.897v8.89h-2.01v-5.664l-2.45 3.467h-.29l-2.437-3.43v5.627ZM42.867 18.238h-2.023l3.656-8.89h1.797l3.657 8.89h-2.149l-.729-1.867h-3.48l-.73 1.867Zm3.455-3.772-.98-2.514-.992 2.514h1.972ZM56.571 9.348h2.363l-2.815 4.356 2.928 4.534h-2.363L54.8 15.254l-1.86 2.984h-2.362l2.928-4.534-2.79-4.356h2.363l1.784 2.857 1.71-2.857ZM59.721 13.793c0-1.312.432-2.405 1.295-3.277.87-.88 1.998-1.32 3.38-1.32 1.374 0 2.492.419 3.355 1.257.88.838 1.32 1.952 1.32 3.34 0 1.338-.445 2.439-1.333 3.302-.88.864-1.993 1.296-3.342 1.296-1.366 0-2.488-.42-3.368-1.258-.871-.838-1.307-1.951-1.307-3.34Zm2.137 0c0 .754.247 1.393.74 1.918a2.37 2.37 0 0 0 1.798.775c.804 0 1.428-.25 1.872-.75.444-.516.666-1.164.666-1.943 0-.804-.243-1.452-.729-1.943a2.448 2.448 0 0 0-1.81-.75c-.736 0-1.344.25-1.821.75-.478.5-.716 1.147-.716 1.943ZM77.417 15.838l.766 1.524c-.268.305-.666.555-1.194.75-.519.186-1.076.279-1.67.279-1.366 0-2.476-.42-3.33-1.258-.855-.855-1.282-1.968-1.282-3.34 0-1.338.402-2.438 1.206-3.302.804-.864 1.935-1.296 3.393-1.296.553 0 1.068.085 1.545.254.478.17.859.394 1.144.674l-.892 1.524c-.587-.364-1.186-.546-1.797-.546-.712 0-1.303.237-1.772.71-.46.466-.691 1.127-.691 1.982 0 .78.247 1.427.741 1.943.494.5 1.135.75 1.923.75.703 0 1.34-.216 1.91-.648ZM79.188 13.793c0-1.312.432-2.405 1.295-3.277.87-.88 1.998-1.32 3.38-1.32 1.374 0 2.492.419 3.355 1.257.88.838 1.32 1.952 1.32 3.34 0 1.338-.445 2.439-1.333 3.302-.88.864-1.993 1.296-3.342 1.296-1.366 0-2.488-.42-3.368-1.258-.871-.838-1.307-1.951-1.307-3.34Zm2.137 0c0 .754.247 1.393.74 1.918a2.37 2.37 0 0 0 1.798.775c.804 0 1.428-.25 1.872-.75.444-.516.666-1.164.666-1.943 0-.804-.243-1.452-.729-1.943a2.448 2.448 0 0 0-1.81-.75c-.736 0-1.344.25-1.821.75-.478.5-.716 1.147-.716 1.943ZM92.812 18.238h-2.01v-8.89h2.023l2.714 3.747 2.564-3.747H100v8.89h-2.01v-5.664l-2.45 3.467h-.29l-2.438-3.43v5.627Z"/></g></svg><svg fill="none" viewBox="0 0 60 60" id="modal-header-btn" xmlns="http://www.w3.org/2000/svg"><path d="m20 20 20.02 20m0-20L20 40m38-10c0 15.464-12.536 28-28 28S2 45.464 2 30 14.536 2 30 2s28 12.536 28 28Z"/></svg><svg fill="none" viewBox="0 0 209 127" id="modal-svg" xmlns="http://www.w3.org/2000/svg"><ellipse cx="115" cy="71" rx="94" ry="50" fill="#D4F8D0"/><ellipse cx="25.5" cy="13.5" rx="25.5" ry="13.5" fill="#D4F8D0"/><ellipse cx="184.5" cy="121" rx="11.5" ry="6" fill="#D4F8D0"/><path d="m170.447 50.608-7.26-5.847a4.547 4.547 0 0 0-6.384.687L145.994 58.87a4.544 4.544 0 0 0 .688 6.383l6.442 5.189c.946.761 1.233 2.1.684 3.183-1.003 1.98-6.165 9.107-10.419 14.39-4.335 5.381-10.089 11.82-11.84 13.247a2.597 2.597 0 0 1-3.255.01l-6.443-5.188a4.511 4.511 0 0 0-3.334-.978 4.508 4.508 0 0 0-3.049 1.666l-10.81 13.421a4.544 4.544 0 0 0 .689 6.383l7.26 5.848a12.236 12.236 0 0 0 7.676 2.696 12.173 12.173 0 0 0 5.391-1.253c6.286-3.101 18.666-13.472 29.224-26.582 10.559-13.11 18.053-27.414 19.743-34.218a12.251 12.251 0 0 0-4.194-12.459Z" fill="#176EE1"/><path d="M171.371 51.434c-2.501 8.426-11.103 24.486-23.006 39.265-12.477 15.492-27.105 27.747-34.534 31.411-.34.166-.686.318-1.038.456a12.23 12.23 0 0 0 7.491 2.554c1.87.002 3.715-.427 5.392-1.253 6.286-3.101 18.666-13.472 29.224-26.582 10.559-13.11 18.053-27.414 19.743-34.218 1.043-4.194-.237-8.63-3.272-11.633Z" fill="#0046A2"/><path d="M129.163 69.287c9.118-7.119 14.316-17.112 14.316-27.624 0-10.122-4.695-19.619-13.222-26.74C121.823 7.879 110.63 4 98.74 4 86.849 4 75.656 7.88 67.223 14.923 58.696 22.044 54 31.54 54 41.663s4.696 19.62 13.223 26.741c8.433 7.044 19.626 10.924 31.517 10.924 3.003 0 5.95-.244 8.828-.726 2.23 1.615 9.722 6.461 21.52 8.296a4.4 4.4 0 0 0 .678.053c1.344 0 2.61-.625 3.48-1.746a4.93 4.93 0 0 0 .623-4.964l-4.706-10.954Z" fill="#DCF4FF"/><path d="M129.163 69.287c9.118-7.119 14.316-17.112 14.316-27.624 0-10.122-4.695-19.619-13.223-26.74C121.823 7.879 110.63 4 98.74 4c-1.376 0-2.742.054-4.096.157 10.347.785 19.963 4.537 27.421 10.766 8.527 7.121 13.223 16.618 13.223 26.74 0 10.512-5.199 20.506-14.316 27.624l4.706 10.955a4.93 4.93 0 0 1-.623 4.964 4.724 4.724 0 0 1-.723.746c1.572.382 3.159.698 4.757.947.227.035.453.052.678.052 1.343 0 2.61-.625 3.479-1.745a4.928 4.928 0 0 0 .623-4.964l-4.706-10.955Z" fill="#B5E9FF"/><path d="M105.058 48.96a1.788 1.788 0 0 0-2.257 1.152c-.004.01-.336.948-1.274 1.852-1.234 1.188-2.932 1.79-5.049 1.79-4.999 0-6.27-3.493-6.316-3.622a1.797 1.797 0 0 0-3.422 1.097c.08.25 2.05 6.12 9.738 6.12s9.659-5.87 9.738-6.12a1.806 1.806 0 0 0-1.158-2.27ZM78.491 37.723a4.027 4.027 0 0 0-4.022 4.023 4.027 4.027 0 0 0 4.022 4.021 4.026 4.026 0 0 0 4.022-4.021 4.026 4.026 0 0 0-4.022-4.023Zm35.974 0a4.026 4.026 0 0 0-4.022 4.023 4.026 4.026 0 0 0 4.022 4.021 4.026 4.026 0 0 0 4.022-4.021 4.027 4.027 0 0 0-4.022-4.023Z" fill="#464649"/></svg><svg fill="none" viewBox="0 0 1170 544" id="portfolio-backgroung" xmlns="http://www.w3.org/2000/svg"><path d="M0 35C0 15.67 15.67 0 35 0h405.75C456.904 0 470 13.096 470 29.25s13.096 29.25 29.25 29.25H1135c19.33 0 35 15.67 35 35V509c0 19.33-15.67 35-35 35H35c-19.33 0-35-15.67-35-35V35Z" fill="#E8E8E8"/></svg><svg fill="none" viewBox="0 0 56 49" id="portfolio-button-next" xmlns="http://www.w3.org/2000/svg"><path d="M53 24.429H3m50 0L31.571 3M53 24.429 31.571 45.857" stroke="#4BAA3F" stroke-width="6" stroke-linecap="round" stroke-linejoin="round"/></svg><svg fill="none" viewBox="0 0 56 49" id="portfolio-button-prev" xmlns="http://www.w3.org/2000/svg"><path d="M3 24.429h50m-50 0 21.429 21.428M3 24.43 24.429 3" stroke="#4BAA3F" stroke-width="6" stroke-linecap="round" stroke-linejoin="round"/></svg><svg fill="none" viewBox="0 0 270 210" id="services-backg-link" xmlns="http://www.w3.org/2000/svg"><path d="M0 100C0 44.772 44.772 0 100 0h70c55.228 0 100 44.772 100 100v90c0 11.046-8.954 20-20 20H20c-11.046 0-20-8.954-20-20v-90Z" fill="#06F"/></svg><svg fill="none" viewBox="0 0 1920 781" id="services-background" xmlns="http://www.w3.org/2000/svg"><path d="M0 58.5h715.75c16.154 0 29.25-13.096 29.25-29.25S758.096 0 774.25 0h371.5C1161.9 0 1175 13.096 1175 29.25s13.1 29.25 29.25 29.25H1920V781h-714.5c-16.84 0-30.5-13.655-30.5-30.5s-13.66-30.5-30.5-30.5H775c-16.845 0-30.5 13.655-30.5 30.5S730.845 781 714 781H0V58.5Z" fill="#E8E8E8"/></svg><svg fill="none" viewBox="0 0 40 40" id="services-btn" xmlns="http://www.w3.org/2000/svg"><path d="m10 15 10 10 10-10" stroke="#fff" stroke-width="4" stroke-linecap="round" stroke-linejoin="round"/></svg><svg fill="none" viewBox="0 0 80 74" id="services-svg-1" xmlns="http://www.w3.org/2000/svg"><path d="M0 16.818 20 18.5v3.365l-20 1.68v-6.726Zm0 17.448 20.342-7.715 1.408 3.048L2.817 40.363 0 34.266ZM2.817 0 21.75 10.763l-1.408 3.05L0 6.097 2.817 0Zm60.516 3.363c-2.256 0-4.417.46-6.38 1.288l-13.011 5.44H33.333v3.363H25V26.91h8.333v3.364h10.599L50 32.808v5.874h-5v5.045h5V74h10l10-13.455V35.58a16.809 16.809 0 0 0 10-15.4c0-9.289-7.461-16.818-16.667-16.818Zm0 54.939-6.666 8.97V35.593l.286.121c2.022.85 4.19 1.287 6.38 1.286v21.302Zm0-28.03a9.808 9.808 0 0 1-3.818-.768l-14.258-5.96H40v-6.726h5.267l14.238-5.951a9.77 9.77 0 0 1 3.828-.776c2.943 0 5.566 1.314 7.399 3.363h-9.065V18.5h11.497c.091.55.169 1.105.169 1.682 0 .576-.078 1.13-.169 1.682H61.667v5.045h9.065c-1.833 2.05-4.456 3.364-7.399 3.364Z" fill="#fff"/></svg><svg fill="none" viewBox="0 0 80 80" id="services-svg-2" xmlns="http://www.w3.org/2000/svg"><path d="M78.448 27.618 74.47 23.64a5.303 5.303 0 0 0-5.002-1.403 5.303 5.303 0 0 0-1.404-5.002l-8.629-8.63a5.294 5.294 0 0 0-2.865-1.478 5.295 5.295 0 0 0-1.479-2.865l-2.709-2.71a5.302 5.302 0 0 0-7.497 0L17.757 28.682a5.301 5.301 0 0 0 0 7.497l5.778 5.778a2.499 2.499 0 0 1 .72 2.05 2.51 2.51 0 0 1-1.152 1.85C5.883 56.831 4.265 58.45 3.574 59.14c-4.765 4.765-4.766 12.52 0 17.285 4.766 4.766 12.52 4.766 17.286 0 .69-.69 2.308-2.308 13.285-19.53a2.504 2.504 0 0 1 1.847-1.146 2.5 2.5 0 0 1 2.053.716l5.778 5.777a5.302 5.302 0 0 0 7.497 0l27.128-27.127a5.302 5.302 0 0 0 0-7.498ZM47.572 58.495l-5.778-5.778a7.817 7.817 0 0 0-6.38-2.237 7.816 7.816 0 0 0-5.739 3.568c-4.865 7.633-10.994 17.06-12.564 18.63a6.921 6.921 0 0 1-9.788-9.788c1.57-1.57 10.997-7.699 18.63-12.564a7.815 7.815 0 0 0 1.33-12.119l-5.777-5.778 4.213-4.213 26.066 26.066-4.213 4.213Zm7.965-7.965L29.47 24.463 48.634 5.302l2.708 2.708-3.025 6.711a.603.603 0 0 0 .123.674l.006.006a.602.602 0 0 0 .682.111l6.559-3.158 8.629 8.63-11.538 17.195a.603.603 0 0 0 .074.763h.001a.602.602 0 0 0 .764.072L70.72 27.389l3.978 3.978-19.162 19.162Z" fill="#fff"/><path d="M13.05 70.072a3.122 3.122 0 1 0 0-6.244 3.122 3.122 0 0 0 0 6.244Z" fill="#fff"/></svg><svg fill="none" viewBox="0 0 80 69" id="services-svg-3" xmlns="http://www.w3.org/2000/svg"><path d="M17.929 16.947h12.22v5.127H17.93v-5.127Zm0 11.658h12.22v5.127H17.93v-5.127Zm0 11.658h12.22v5.126H17.93v-5.127Zm0 11.657h12.22v5.127H17.93V51.92Z" fill="#fff"/><path d="M42.643 63.873v-41.89l26.793-.03v28.259h5.128V19.386c0-1.398-1.17-2.563-2.567-2.563l-31.921.037a2.564 2.564 0 0 0-2.562 2.563v44.45h-26.95V13.15l26.95-7.244v5.82h5.129V2.56c0-1.658-1.626-2.906-3.23-2.475L7.334 8.708a2.566 2.566 0 0 0-1.898 2.476v52.69H0V69h80v-5.127H42.643Z" fill="#fff"/><path d="M69.436 54.826h5.128V59.6h-5.128v-4.775ZM49.85 28.605h12.221v5.127h-12.22v-5.127Zm0 11.658h12.221v5.126h-12.22v-5.127Zm0 11.657h12.221v5.127h-12.22V51.92Z" fill="#fff"/></svg><svg fill="none" viewBox="0 0 86 86" id="services-svg-4" xmlns="http://www.w3.org/2000/svg"><path d="M12.959 8.2A4.98 4.98 0 1 1 3 8.2a4.98 4.98 0 0 1 9.959 0ZM12.959 83.22H3V23.137h9.959V83.22ZM7.979 13.179v9.958M83 8.2a4.98 4.98 0 1 1-9.959 0A4.98 4.98 0 0 1 83 8.2ZM83 83.22H73.04V23.137H83V83.22ZM78.022 13.179v9.958M73.042 78.24H12.959" stroke="#fff" stroke-width="5" stroke-miterlimit="10"/><path d="M12.959 28.116h15.104S34.75 23.137 43 23.137s14.937 4.98 14.937 4.98h15.104M28.063 85.71V20.648M57.938 20.648V85.71M43 15.668V48.2M43 58.158V85.71M47.98 58.158h-9.958v-9.959h9.958v9.959Z" stroke="#fff" stroke-width="5" stroke-miterlimit="10"/></svg><svg viewBox="0 0 50 50" id="telegram" xmlns="http://www.w3.org/2000/svg"><g fill-rule="evenodd" clip-rule="evenodd"><path d="M25 48c12.703 0 23-10.297 23-23S37.703 2 25 2 2 12.297 2 25s10.297 23 23 23Zm0 2c13.807 0 25-11.193 25-25S38.807 0 25 0 0 11.193 0 25s11.193 25 25 25Z"/><path d="m15.375 24.318 10.74-4.745c5.114-2.181 6.177-2.56 6.87-2.573.152-.003.493.036.713.22.187.155.238.364.262.511.025.147.055.482.031.744-.277 2.987-1.476 10.235-2.086 13.58-.259 1.416-.767 1.89-1.259 1.937-1.07.1-1.881-.725-2.917-1.422l-4.11-2.831c-1.819-1.23-.64-1.905.396-3.009.272-.289 4.984-4.685 5.075-5.083.01-.05.022-.236-.086-.334-.108-.098-.267-.064-.381-.038-.163.038-2.752 1.793-7.768 5.266-.735.518-1.4.77-1.997.757-.658-.015-1.923-.382-2.863-.695-1.153-.385-2.07-.588-1.99-1.241.041-.34.498-.688 1.37-1.044Z"/></g></svg><svg fill="none" viewBox="0 0 250 43" id="trust-svg-1" xmlns="http://www.w3.org/2000/svg"><path fill-rule="evenodd" clip-rule="evenodd" d="M33.708 0H25.28v1.91H7.022C3.144 1.91 0 5.117 0 9.073v24.593c0 3.956 3.144 7.163 7.022 7.163h18.259V42.5h8.427v-1.671h18.258c3.879 0 7.023-3.207 7.023-7.163V9.073c0-3.956-3.144-7.163-7.023-7.163H33.708V0ZM25.28 10.744H8.895v21.25h16.386v-21.25Zm8.427 21.25v-21.25h16.62v21.25h-16.62ZM76.31 1.91c-3.878 0-7.022 3.207-7.022 7.163v24.593c0 3.956 3.144 7.163 7.023 7.163h37.921c3.879 0 7.023-3.207 7.023-7.163V9.073c0-3.956-3.144-7.163-7.023-7.163H76.311Zm35.815 8.834H78.183v21.25h33.942v-21.25ZM132.022 9.073c0-3.956 3.145-7.163 7.023-7.163h36.517c3.878 0 7.022 3.207 7.022 7.163v22.921h3.043v8.835h-56.414v-8.835h2.809V9.073Zm8.427 22.921h33.942v-21.25h-33.942v21.25ZM196.395 9.073c0-3.956 3.144-7.163 7.023-7.163h36.516c3.879 0 7.023 3.207 7.023 7.163v22.921H250v8.835h-56.414v-8.835h2.809V9.073Zm8.427 22.921h33.942v-21.25h-33.942v21.25Z" fill="#272727"/></svg><svg fill="none" viewBox="0 0 250 40" id="trust-svg-2" xmlns="http://www.w3.org/2000/svg"><path d="M63.264 3.56V5.01h12.427c.829 0 2.072 0 2.888.828.815.829.828 2.071.828 2.887v12.427c0 .829 0 2.071-.828 2.887-.829.829-2.072.829-2.888.829h-6c-1.034 0-2.382 0-2.887-1.14-.517-1.14.207-2.174.829-3.013l8.084-10.77H63.29l-4.971 6.628c-.834 1.11-1.554 2.071-1.554 3.314 0 1.243.67 2.136 1.554 3.314l1.242 1.657c1.243 1.657 2.486 3.314 4.143 4.142 1.657.828 3.615.828 6.326.828h5.373c3.113 0 7.757 0 10.87-3.113 3.113-3.113 3.113-7.657 3.113-9.313V12.43c0-1.657 0-6.201-3.113-9.314C83.16.003 78.516.003 75.403.003L66.817 0c-.829 0-1.863 0-2.686.828-.829.829-.829 1.863-.829 2.687" fill="#C4151C"/><path d="M48.453 9.987h12.3L45.943 29.92H33.641L48.453 9.987ZM0 13.502c0-.829 0-1.863.828-2.687.829-.823 1.863-.828 2.687-.828h20.812c2.686 0 4.67 0 6.326.829 1.657.828 2.887 2.485 4.142 4.142l1.243 1.657c.881 1.175 1.554 2.07 1.554 3.314 0 1.242-.72 2.204-1.554 3.313l-4.97 6.628H18.64l8.084-10.77c.62-.828 1.346-1.863.829-3.013-.518-1.14-1.863-1.14-2.887-1.14h-9.741v24.855H4.983V14.948H.013v-1.451" fill="#C4151C"/><path d="M101.174 26.406c-.746 1.014-1.507 2.013-2.252 3.012v.568h2.101c1.029-1.371 1.567-2.087 1.567-2.913h2.058v2.913h1.969v-2.913h2.058c0 .821.537 1.537 1.567 2.913h2.101v-.568l-2.267-3.012c1.908-1.431 1.908-1.431 1.908-3.314v-.625h-2.146v.625c0 2.282 0 2.282-2.237 2.282h-.984v-2.912h-1.969v2.912h-.984c-2.237 0-2.237 0-2.237-2.282v-.625h-2.146v.625c0 1.878 0 1.878 1.893 3.314Z" fill="#231F20"/><path fill-rule="evenodd" clip-rule="evenodd" d="M116.237 25.401c0-1.654 0-1.654 1.832-1.654 1.833 0 1.833 0 1.833 1.654h-3.665Zm0 1.341h1.832c1.923-.015 2.491.015 3.139-.134l.76-.179v-.73c0-1.238 0-3.566-3.54-3.566h-.715c-3.54 0-3.54 2.325-3.54 3.59v.716c0 1.34.03 3.59 3.916 3.59.583 0 1.893 0 3.314-.357v-1.609h-.401l-1.431.357h-1.522c-1.832 0-1.832 0-1.832-1.655l.02-.023Z" fill="#231F20"/><path d="M125.275 22.339c0 1.132-.09 4.544-1.878 6.929v.582h2.191c1.298-1.73 1.298-3.992 1.298-5.85h3.088v5.85h1.968v-7.506h-6.652" fill="#231F20"/><path fill-rule="evenodd" clip-rule="evenodd" d="M136.321 25.401c0-1.654 0-1.654 1.835-1.654 1.833 0 1.833 0 1.833 1.654h-3.666m0 1.341h1.835c1.923-.015 2.491.015 3.139-.134l.76-.179v-.73c0-1.238 0-3.566-3.54-3.566h-.715c-3.54 0-3.54 2.325-3.54 3.59v.716c0 1.34.03 3.59 3.916 3.59.583 0 1.893 0 3.314-.357v-1.609h-.401l-1.431.357h-1.522c-1.832 0-1.832 0-1.832-1.655l.017-.023Z" fill="#231F20"/><path d="M149.375 26.155v-.224c1.522-.387 1.522-1.326 1.522-1.685 0-.715 0-2.146-3.615-2.146-.538 0-1.79 0-3.214.359v1.61h.402l1.431-.36h1.654c1.147 0 1.208 0 1.208.834 0 .82 0 .82-1.208.82h-1.654v1.341h1.654c1.147 0 1.208 0 1.208.821 0 .836 0 .836-1.208.836h-1.654l-1.431-.359h-.402v1.61c1.431.356 2.686.356 3.214.356 3.615 0 3.615-1.431 3.615-2.147 0-.356 0-1.295-1.522-1.67M159.166 22.339v2.811h-4.017V22.34h-2.008v7.581h2.008v-3.012h4.017v3.012h1.758V22.34h-1.758Z" fill="#231F20"/><path fill-rule="evenodd" clip-rule="evenodd" d="M167.2 26.155c1.566 0 1.566 0 1.566 1.162s0 1.162-1.566 1.162h-1.567v-2.324h1.567Zm7.029-3.766h-1.968v7.506h1.968V22.39Zm-6.753 7.506c2.37 0 3.364-.522 3.364-2.56 0-1.118 0-2.737-3.088-2.737-.447 0-1.207.045-2.101.269V22.36h-1.968v7.507h3.79l.003.027ZM178.748 25.401c0-1.654 0-1.654 1.833-1.654 1.832 0 1.832 0 1.832 1.654h-3.665Zm0 1.341h1.833c1.923-.015 2.49.015 3.138-.134l.76-.179v-.73c0-1.238 0-3.566-3.539-3.566h-.716c-3.54 0-3.54 2.325-3.54 3.59v.716c0 1.34.03 3.59 3.917 3.59.582 0 1.893 0 3.314-.357v-1.609h-.402l-1.431.357h-1.521c-1.833 0-1.833 0-1.833-1.655l.02-.023ZM192.556 25.904c0-2.014 0-1.969 2.661-1.969.359 0 .851.045 1.446.179v3.213l-1.908.477c-2.207 0-2.207 0-2.207-1.907m-1.162 5.196v1.7c1.431.359 2.586.359 3.038.359 4.067 0 4.192-1.76 4.192-3.766v-6.98h-.643l-.954.716c-.655-.85-2.252-.878-2.761-.878-3.791 0-3.791 2.385-3.791 3.464v.36c0 1.252 0 3.313 3.213 3.313.969 0 2.117-.269 2.963-.894v.625c0 2.31-.045 2.325-2.415 2.325h-1.03l-1.431-.359h-.401l.02.015ZM204.606 22.163c-3.791 0-3.791 2.237-3.791 3.59v.715c0 1.341 0 3.59 3.791 3.59h.716c3.79 0 3.79-2.236 3.79-3.59v-.715c0-1.34 0-3.59-3.79-3.59h-.716Zm.357 1.654c2.101 0 2.101 0 2.101 2.282s0 2.282-2.101 2.282c-2.102 0-2.102 0-2.102-2.282s0-2.282 2.102-2.282ZM217.41 26.155c0 2.236 0 2.236-2.192 2.236-.537 0-1.223 0-1.923-.179v-3.765l1.908-.477c2.207 0 2.207.03 2.207 2.176m-6.076-3.765v10.544h1.968V29.66c.894.224 1.61.402 2.687.402 3.489 0 3.489-2.561 3.489-3.59v-.716c0-1.253 0-3.59-3.263-3.59-1.67 0-2.636.73-3.164 1.132l-.715-.954h-.984l-.018.036ZM225.443 22.163c-3.791 0-3.791 2.237-3.791 3.59v.715c0 1.341 0 3.59 3.791 3.59h.716c3.791 0 3.791-2.236 3.791-3.59v-.715c0-1.34 0-3.59-3.791-3.59h-.716Zm.357 1.654c2.101 0 2.101 0 2.101 2.282s0 2.282-2.101 2.282c-2.102 0-2.102 0-2.102-2.282s0-2.282 2.102-2.282Z" fill="#231F20"/><path d="M235.736 22.163c-.715 0-1.654 0-3.088.359v1.61h.402l1.431-.357h1.833c.984 0 .984 0 .984.567 0 .387 0 .507-.761.64l-1.79.447c-1.029.254-2.46.64-2.46 2.192 0 1.029 0 2.415 3.615 2.415.715 0 1.654 0 3.088-.357V28.07h-.402c-.597.164-1.162.299-1.386.36h-1.877c-.985 0-.985 0-.985-.568 0-.342 0-.417.417-.538l.999-.268 1.133-.284c1.029-.253 2.46-.625 2.46-2.191 0-1.03 0-2.416-3.615-2.416M248.54 30.171l1.461-1.09c-.537-.715-.537-.715-.537-1.982v-4.645h-1.969v5.448l-1.908.477c-2.028 0-2.028 0-2.028-2.071v-3.866h-1.968v4.167c0 1.476 0 3.54 2.987 3.54 1.567 0 2.536-.73 3.063-1.133l.879 1.163" fill="#231F20"/><path fill-rule="evenodd" clip-rule="evenodd" d="M99.416 4.389v10.544h2.147V12.02h1.7c2.912 0 5.196 0 5.196-3.816 0-3.842-2.282-3.842-5.196-3.842h-3.842m2.147 5.775V6.246h2.586c1.923 0 2.013 0 2.013 1.954 0 1.892 0 1.938-2.013 1.938h-2.586ZM113.977 7.25c-3.791 0-3.791 2.237-3.791 3.59v.716c0 1.34 0 3.59 3.791 3.59h.716c3.791 0 3.791-2.237 3.791-3.59v-.715c0-1.341 0-3.59-3.791-3.59h-.716Zm.357 1.655c2.101 0 2.101 0 2.101 2.282s0 2.282-2.101 2.282c-2.102 0-2.102 0-2.102-2.282s0-2.282 2.102-2.282Z" fill="#231F20"/><path d="M124.27 15.133c.538 0 1.923 0 3.364-.358v-1.61h-.401l-1.446.357h-.849c-2.49 0-2.49 0-2.49-2.325s0-2.325 1.832-2.325c1.552 0 1.552 0 1.923 1.476l1.79-.446c0-.716 0-2.636-3.364-2.636h-.715c-3.54 0-3.54 2.236-3.54 3.59v.715c0 1.34 0 3.59 3.891 3.59M133.81 15.133c.537 0 1.923 0 3.364-.358v-1.61h-.401l-1.446.357h-.849c-2.49 0-2.49 0-2.49-2.325s0-2.325 1.832-2.325c1.552 0 1.552 0 1.923 1.476l1.79-.446c0-.716 0-2.636-3.364-2.636h-.715c-3.54 0-3.54 2.236-3.54 3.59v.715c0 1.34 0 3.59 3.891 3.59M146.363 15.159l1.461-1.09c-.537-.716-.537-.716-.537-1.983V7.44h-1.969v5.448l-1.908.477c-2.028 0-2.028 0-2.028-2.071V7.429h-1.968v4.167c0 1.476 0 3.54 2.987 3.54 1.567 0 2.536-.73 3.063-1.132l.879 1.162" fill="#231F20"/><path fill-rule="evenodd" clip-rule="evenodd" d="M153.392 4.765c-.969 0-.969 0-1.446-.537l-.864.67c.939 1.208 1.416 1.298 2.787 1.298h.329c1.356 0 1.848-.09 2.761-1.298l-.863-.67c-.462.537-.462.537-1.446.537h-1.268m3.64 10.419 1.461-1.09c-.537-.715-.537-.715-.537-1.983V7.466h-1.968v5.448l-1.908.477c-1.983 0-2.029 0-2.029-2.071V7.454h-1.968v4.167c0 1.476 0 3.54 2.988 3.54 1.566 0 2.535-.73 3.062-1.132l.879 1.162.02-.007Z" fill="#231F20"/><path d="M164.187 15.133c.537 0 1.923 0 3.364-.358v-1.61h-.401l-1.446.357h-.852c-2.49 0-2.49 0-2.49-2.325s0-2.325 1.833-2.325c1.551 0 1.551 0 1.923 1.476l1.79-.446c0-.716 0-2.636-3.364-2.636h-.716c-3.54 0-3.54 2.236-3.54 3.59v.715c.001 1.34.001 3.59 3.892 3.59M170.212 7.451v7.507h1.969v-2.912h2.415c0 .82.537 1.536 1.564 2.912h2.101v-.568l-2.267-3.012c1.908-1.431 1.908-1.431 1.908-3.314v-.625h-2.146v.625c0 2.282 0 2.282-2.237 2.282h-1.341V7.434h-1.968M187.284 15.159l1.461-1.09c-.537-.716-.537-.716-.537-1.983V7.44h-1.969v5.448l-1.908.477c-2.028 0-2.028 0-2.028-2.071V7.429h-1.968v4.167c0 1.476 0 3.54 2.987 3.54 1.567 0 2.536-.73 3.063-1.132l.879 1.162" fill="#231F20"/><path fill-rule="evenodd" clip-rule="evenodd" d="M192.556 10.514c0-1.654 0-1.654 1.835-1.654 1.833 0 1.833 0 1.833 1.654h-3.666m0 1.34h1.835c1.923-.014 2.491.016 3.139-.133l.76-.18v-.73c0-1.238 0-3.565-3.54-3.565h-.715c-3.54 0-3.54 2.325-3.54 3.59v.716c0 1.34.03 3.59 3.917 3.59.582 0 1.892 0 3.313-.36v-1.608h-.401l-1.431.356h-1.522c-1.835 0-1.835 0-1.835-1.654l.02-.021Z" fill="#231F20"/></svg><svg fill="none" viewBox="0 0 230 105" id="trust-svg-3" xmlns="http://www.w3.org/2000/svg"><path fill-rule="evenodd" clip-rule="evenodd" d="M71.856 23.182v-2.273l25.37-7.424 13.976 3.94v2.878l30.383-7.273V2.88l-30.383 8.94V9.09L141.585 0l17.622 7.273v65.303h21.496a2.503 2.503 0 0 1 2.507 2.5c0 1.38-1.122 2.5-2.507 2.5H57.044a2.503 2.503 0 0 1-2.506-2.5c0-1.381 1.122-2.5 2.506-2.5h39.878v-6.97l-24.914 1.06V62.88l24.914-1.212v-8.485l-24.914 2.576v-3.94l24.914-2.879v-8.181l-24.914 4.09v-4.09l24.914-4.091v-8.334l-24.914 5.455L71.856 30l25.066-5.91v-8.18l-25.066 7.272ZM111.202 25v8.788l30.383-5.455v-9.848L111.202 25Zm0 13.333v8.788l30.383-3.485V33.485l-30.383 4.848Zm0 22.273v-8.788l30.383-3.03v10l-30.383 1.818Zm0 4.394v7.424h30.383V63.94L111.202 65Z" fill="#272727"/><path d="M12.246 85.303c-1.332 0-2.38.478-3.429 2.476l-8.7 16.461c-.226.45-.141.76.397.76h4.42c.398 0 .596-.113.738-.394l1.7-3.292H19.67l1.729 3.292c.17.281.34.394.737.394h4.307c.567 0 .652-.31.397-.76l-8.842-16.46c-1.076-1.999-2.068-2.477-3.769-2.477h-1.983Zm.822 4.924c.113-.14.198-.197.34-.197h.141c.142 0 .227.057.312.197l3.797 7.232H9.356l3.712-7.232ZM35.808 85.303c-5.81 0-8.02 2.026-8.02 7.429v4.84c0 5.402 2.21 7.428 8.02 7.428h12.808c.482 0 .737-.253.737-.732v-3.292c0-.478-.255-.731-.737-.731h-12.61c-2.465 0-3.06-.648-3.06-3.18v-3.827c0-2.532.595-3.18 3.06-3.18h12.61c.482 0 .737-.253.737-.731v-3.292c0-.479-.255-.732-.737-.732H35.808ZM53.021 85.303c-.482 0-.737.253-.737.732v18.233c0 .479.255.732.737.732h3.684c.482 0 .737-.253.737-.732v-7.316h2.21c1.389 0 1.87.197 2.494 1.041l5.015 6.613c.199.281.34.394.907.394h4.336c.651 0 .595-.619.425-.844l-5.696-7.26c-.68-.872-1.303-1.547-2.04-2.026.481-.422.935-1.013 1.502-1.745l5.469-7.062c.198-.282.141-.76-.397-.76h-4.25c-.567 0-.709.113-.936.394l-4.732 6.387c-.652.9-1.134 1.041-2.494 1.041h-1.813v-7.09c0-.479-.255-.732-.737-.732H53.02ZM84.236 85.303c-.51 0-.737.253-.737.732v3.292c0 .478.226.731.737.731h8.5v14.21c0 .479.256.732.766.732h3.655c.482 0 .737-.253.737-.732v-14.21h8.53c.481 0 .736-.253.736-.731v-3.292c0-.479-.255-.732-.736-.732H84.235ZM111.297 85.303c-1.219 0-1.757.675-1.757 1.52v16.658c0 1.125.538 1.519 1.757 1.519h18.759c.482 0 .737-.253.737-.732v-3.151c0-.507-.255-.732-.737-.732h-15.104c-.255 0-.396-.169-.396-.45v-2.842h15.33c.51 0 .737-.225.737-.731v-2.59c0-.506-.227-.73-.737-.73h-15.33V90.34c0-.282.141-.394.396-.394h15.104c.482 0 .737-.253.737-.76v-3.151c0-.479-.255-.732-.737-.732h-18.759ZM142.08 85.303c-1.984 0-2.522 1.07-2.721 2.617-.68 5.543-1.048 8.413-1.643 10.27-.567 1.745-1.275 2.055-1.927 2.055h-2.295c-.51 0-.737.253-.737.731v3.292c0 .479.227.732.737.732h3.202c2.663 0 3.825-1.21 4.619-3.517 1.077-3.152 1.672-8.414 1.898-10.58.057-.422.142-.845.794-.845h5.781c.368 0 .51.141.51.479v13.731c0 .479.226.732.736.732h3.684c.482 0 .737-.253.737-.732V87.864c0-1.773-.765-2.561-2.834-2.561H142.08ZM167.179 85.303c-1.983 0-2.522 1.07-2.72 2.617-.68 5.543-1.049 8.413-1.644 10.27-.566 1.745-1.275 2.055-1.927 2.055h-2.295c-.51 0-.737.253-.737.731v3.292c0 .479.227.732.737.732h3.202c2.664 0 3.826-1.21 4.619-3.517 1.077-3.152 1.672-8.414 1.899-10.58.057-.422.142-.845.793-.845h5.781c.368 0 .51.141.51.479v13.731c0 .479.227.732.737.732h3.684c.482 0 .737-.253.737-.732V87.864c0-1.773-.766-2.561-2.834-2.561h-10.542ZM183.154 85.303c-.623 0-.623.478-.396.844l8.869 13.45c-.368.451-.878.648-2.04.648h-2.834c-.51 0-.765.253-.765.731v3.292c0 .479.255.732.765.732h2.891c2.096 0 4.137-.45 5.61-2.814l10.173-16.01c.199-.338.227-.873-.396-.873h-3.713c-.963 0-1.133.281-1.388.704l-5.696 9.341-5.979-9.567c-.227-.365-.51-.478-1.048-.478h-4.053ZM208.464 85.303c-.567 0-.85.281-.85.844v18.121c0 .479.255.732.736.732h3.684c.482 0 .737-.253.737-.732v-5.036h11.023c4.449 0 6.206-2.026 6.206-5.825v-2.28c0-3.798-1.757-5.824-6.206-5.824h-15.33Zm4.307 4.924c0-.225.113-.337.34-.337h9.663c1.559 0 2.069.619 2.069 1.941v1.041c0 1.35-.51 1.97-2.069 1.97h-10.003v-4.615Z" fill="#272727"/></svg><svg viewBox="0 0 50 50" id="vk" xmlns="http://www.w3.org/2000/svg"><path fill-rule="evenodd" clip-rule="evenodd" d="M25 48c12.703 0 23-10.297 23-23S37.703 2 25 2 2 12.297 2 25s10.297 23 23 23Zm0 2c13.807 0 25-11.193 25-25S38.807 0 25 0 0 11.193 0 25s11.193 25 25 25Z"/><path d="M34.957 29.92c-.523-.634-1.117-1.2-1.691-1.75-.204-.195-.415-.396-.619-.597-.584-.576-.605-.793-.143-1.448.32-.451.66-.903.988-1.34.297-.397.605-.807.9-1.219l.06-.084c.565-.788 1.148-1.602 1.458-2.584.08-.26.166-.64-.028-.96-.193-.318-.568-.415-.834-.46a2.255 2.255 0 0 0-.382-.026l-3.693-.003h-.03c-.56 0-.935.265-1.151.812a22.469 22.469 0 0 1-.69 1.606c-.514 1.053-1.166 2.265-2.11 3.276l-.04.043c-.11.12-.237.258-.33.258a.157.157 0 0 1-.046-.009c-.196-.077-.327-.554-.32-.776v-.01l-.003-4.307a.35.35 0 0 0-.003-.044c-.094-.7-.302-1.136-1.089-1.292a.323.323 0 0 0-.063-.006h-3.84c-.625 0-.97.257-1.294.64-.088.103-.27.317-.18.576.092.264.39.32.486.338.48.092.751.389.828.907.134.9.15 1.86.052 3.022a2.556 2.556 0 0 1-.172.786c-.02.05-.094.212-.17.212-.023 0-.093-.01-.219-.097-.298-.206-.515-.5-.77-.863-.864-1.233-1.59-2.59-2.218-4.152-.233-.575-.668-.897-1.225-.907-.613-.01-1.169-.014-1.699-.014-.579 0-1.115.006-1.64.017-.448.008-.759.143-.922.404-.163.26-.153.602.032 1.015 1.477 3.315 2.817 5.725 4.344 7.815 1.07 1.463 2.142 2.475 3.376 3.186 1.3.75 2.756 1.115 4.453 1.115.192 0 .39-.005.591-.014.986-.049 1.352-.409 1.398-1.377.022-.495.076-1.014.317-1.457.152-.28.294-.28.34-.28.09 0 .202.043.321.12.215.142.399.331.55.497.142.157.282.316.423.475.303.342.616.697.944 1.033.717.736 1.506 1.06 2.414.99h3.385a.986.986 0 0 0 .823-.519c.214-.38.21-.866-.01-1.298-.25-.489-.575-.907-.86-1.25Z"/></svg><svg viewBox="0 0 50 50" id="whatsapp" xmlns="http://www.w3.org/2000/svg"><g fill-rule="evenodd" clip-rule="evenodd"><path d="M25.05 13a11.901 11.901 0 0 1 8.453 3.488A11.792 11.792 0 0 1 37 24.9c-.003 6.558-5.364 11.893-11.95 11.893h-.005c-2-.001-3.965-.5-5.71-1.448L13 37l1.695-6.163a11.828 11.828 0 0 1-1.595-5.945C13.103 18.335 18.464 13 25.05 13ZM30.5 27.382c-.3-.149-1.767-.867-2.04-.967-.274-.099-.473-.148-.672.15-.2.297-.772.966-.946 1.164-.174.199-.348.223-.647.075a4.417 4.417 0 0 0-.197-.089c-.42-.181-1.25-.54-2.204-1.386-.888-.788-1.487-1.761-1.661-2.059-.174-.297-.019-.458.13-.606.09-.089.193-.214.296-.338.052-.063.103-.125.153-.183.127-.147.182-.26.257-.411l.041-.085c.1-.198.05-.371-.025-.52-.05-.1-.332-.785-.589-1.407l-.331-.8c-.214-.511-.431-.51-.605-.509h-.067c-.174-.01-.373-.011-.572-.011a1.1 1.1 0 0 0-.797.372 6.29 6.29 0 0 1-.058.062c-.31.33-.986 1.048-.986 2.417 0 1.454 1.058 2.86 1.216 3.07l.003.004.052.074c.358.51 2.25 3.21 5.048 4.413.713.306 1.269.489 1.703.626.715.226 1.366.194 1.88.117.574-.085 1.767-.718 2.016-1.413.248-.694.248-1.289.174-1.413-.06-.1-.2-.167-.41-.267-.05-.025-.104-.05-.162-.08Z"/><path d="M50 25c0 13.807-11.193 25-25 25S0 38.807 0 25 11.193 0 25 0s25 11.193 25 25Zm-2 0c0 12.703-10.297 23-23 23S2 37.703 2 25 12.297 2 25 2s23 10.297 23 23Z"/></g></svg></svg>